<?xml version="1.0" encoding="utf-8"?>
<!-- Generator: Adobe Illustrator 24.0.0, SVG Export Plug-In . SVG Version: 6.00 Build 0)  -->
<svg version="1.1" id="Layer_1" xmlns="http://www.w3.org/2000/svg" xmlns:xlink="http://www.w3.org/1999/xlink" x="0px" y="0px"
	 viewBox="0 0 81.61 81.8" style="enable-background:new 0 0 81.61 81.8;" xml:space="preserve">
<style type="text/css">
	.st0{fill:#FFFFFF;}
	.st1{fill:#D64641;}
</style>
<g>
	<g>
		<path class="st0" d="M159.21,390.96c3.04-0.01,6.02,0.84,8.58,2.47c2.54,1.55,4.68,3.98,6.41,7.31l6.5-2.79
			c-2.35-4.64-5.37-8.1-9.06-10.4c-3.71-2.38-8.02-3.63-12.43-3.6c-3.12-0.01-6.21,0.61-9.09,1.81c-5.58,2.4-10.03,6.83-12.46,12.4
			c-2.42,5.81-2.42,12.35,0,18.16c2.42,5.58,6.87,10.02,12.46,12.42c2.88,1.2,5.97,1.82,9.09,1.81c4.4,0.03,8.72-1.22,12.43-3.6
			c3.69-2.3,6.71-5.76,9.06-10.4l-6.5-2.79c-1.73,3.31-3.86,5.77-6.41,7.37c-2.58,1.59-5.55,2.42-8.58,2.41
			c-4.34,0.07-8.52-1.65-11.56-4.76c-6.36-6.37-6.36-16.69,0-23.06C150.69,392.62,154.87,390.9,159.21,390.96z"/>
		<path class="st0" d="M204,396.79c-4.49-0.07-8.81,1.72-11.94,4.95c-3.3,3.3-4.95,7.28-4.95,11.92c-0.07,4.49,1.72,8.81,4.95,11.94
			c3.13,3.23,7.45,5.02,11.94,4.95c4.64,0,8.62-1.65,11.92-4.95c3.23-3.13,5.02-7.45,4.95-11.94c0-4.64-1.65-8.62-4.95-11.92
			C212.61,398.44,208.64,396.79,204,396.79z M211.01,420.64c-3.87,3.87-10.14,3.86-14,0c-3.87-3.87-3.86-10.14,0.01-14.01v-0.01
			c1.84-1.88,4.36-2.93,6.99-2.89c2.63,0,5.15,1.04,7.01,2.9C214.88,410.5,214.88,416.78,211.01,420.64z"/>
		<path class="st0" d="M464.38,396.79c-4.49-0.07-8.81,1.72-11.94,4.95c-3.3,3.3-4.95,7.28-4.95,11.92
			c-0.07,4.49,1.72,8.81,4.95,11.94c3.13,3.23,7.45,5.02,11.94,4.95c4.64,0,8.62-1.65,11.92-4.95c3.23-3.13,5.02-7.45,4.95-11.94
			c0-4.64-1.65-8.62-4.95-11.92C473,398.44,469.02,396.79,464.38,396.79z M471.39,420.64c-3.87,3.87-10.14,3.86-14,0
			c-3.87-3.87-3.86-10.14,0-14.01v-0.01c1.84-1.88,4.36-2.93,6.99-2.89c2.63,0,5.15,1.04,7.01,2.9
			C475.26,410.5,475.26,416.78,471.39,420.64z"/>
		<path class="st0" d="M504.58,396.79c-4.49-0.07-8.81,1.72-11.94,4.95c-3.3,3.3-4.95,7.28-4.95,11.92
			c-0.07,4.49,1.72,8.81,4.95,11.94c3.13,3.23,7.45,5.02,11.94,4.95c4.64,0,8.62-1.65,11.92-4.95c3.23-3.13,5.02-7.45,4.95-11.94
			c0-4.64-1.65-8.62-4.95-11.92C513.19,398.44,509.22,396.79,504.58,396.79z M511.58,420.64c-3.87,3.87-10.14,3.86-14,0
			c-3.87-3.87-3.86-10.14,0.01-14.01v-0.01c1.84-1.88,4.36-2.93,6.99-2.89c2.63,0,5.15,1.04,7.01,2.9
			C515.46,410.5,515.45,416.78,511.58,420.64z"/>
		<path class="st0" d="M284.4,396.77c-4.62,0-8.6,1.66-11.92,4.96c-3.33,3.3-4.99,7.28-4.99,11.92c0.02,4.66,1.68,8.64,4.99,11.94
			c3.3,3.3,7.28,4.95,11.92,4.95c3.19,0.02,6.31-0.89,8.99-2.62c2.67-1.67,4.91-4.3,6.7-7.89l-6.42-2.78
			c-1.17,2.29-2.53,3.89-4.06,4.81c-3.76,2.39-8.66,1.93-11.92-1.1c-1.73-1.81-2.73-3.53-2.99-5.17h26.52l0.06-2.15
			c0-4.64-1.65-8.62-4.95-11.92C293.01,398.42,289.04,396.77,284.4,396.77z M275.71,408.84c0.52-1,1.48-2.07,2.9-3.23
			c3.46-2.51,8.14-2.51,11.59,0c1.45,1.14,2.43,2.21,2.93,3.23H275.71z"/>
		<path class="st0" d="M396.79,405.24c1.54,0.94,2.9,2.54,4.08,4.81l6.43-2.78c-1.79-3.57-4.03-6.19-6.7-7.86
			c-2.68-1.73-5.81-2.65-9-2.62c-4.67,0-8.66,1.65-11.96,4.95c-3.3,3.3-4.95,7.28-4.95,11.92c-0.07,4.49,1.72,8.82,4.95,11.94
			c3.33,3.3,7.31,4.95,11.96,4.95c3.19,0.02,6.32-0.89,9-2.62c2.67-1.67,4.9-4.3,6.7-7.89l-6.43-2.76
			c-1.18,2.29-2.54,3.89-4.08,4.81c-3.23,2.03-7.34,2.03-10.58,0c-4.65-2.92-6.06-9.06-3.14-13.71
			C386,403.72,392.14,402.32,396.79,405.24z"/>
		<path class="st0" d="M254.1,399.97c-6.72-4.87-15.98-4.13-21.84,1.75c-3.3,3.3-4.95,7.27-4.95,11.92
			c-0.01,9.33,7.54,16.91,16.87,16.92c3.57,0.01,7.04-1.12,9.93-3.21v3.2h6.99v-46.6h-6.99V399.97z M254.1,414.43
			c-0.15,2.37-1.17,4.6-2.87,6.26c-3.89,3.91-10.21,3.93-14.12,0.05c-3.91-3.89-3.93-10.21-0.05-14.12
			c3.89-3.91,10.21-3.93,14.12-0.05c1.69,1.68,2.73,3.91,2.92,6.29V414.43z"/>
		<path class="st0" d="M344.71,392.48c0.94-0.56,1.97-0.95,3.05-1.16c0.94-0.23,1.9-0.35,2.87-0.36c3.06,0,6.21,1.1,8.3,3.3
			c1.19,1.05,3.15,4.39,3.15,4.39l6.2-2.33c-0.58-1.88-2.62-5.08-4.29-6.93c-3.43-3.63-8.27-5.44-13.36-5.44
			c-4.27,0-7.93,1.17-10.97,3.5c-3.45,2.64-5.18,6.15-5.18,10.53c0,2.72,0.8,5.03,2.39,6.94c0.15,0.2,0.29,0.39,0.46,0.58
			c2.72,3.15,7.28,4.9,12.56,5.26c7.41,0.47,11.41,2.4,11.41,5.77c0,2.42-1.08,4.25-3.25,5.5c-0.94,0.56-1.97,0.95-3.05,1.16
			c-0.94,0.23-1.9,0.35-2.87,0.36c-3.06,0-6.21-1.1-8.3-3.3c-1.19-1.05-3.15-4.39-3.15-4.39l-6.2,2.33
			c0.58,1.88,2.62,5.08,4.29,6.93c3.43,3.63,8.27,5.44,13.35,5.44c4.27,0,7.93-1.17,10.97-3.5c3.45-2.65,5.17-6.16,5.17-10.54
			c0-2.72-0.8-5.03-2.39-6.94h0.01c-0.15-0.2-0.29-0.39-0.46-0.58c-2.72-3.15-7.28-4.91-12.56-5.26c-7.41-0.47-11.41-2.4-11.41-5.77
			c0-0.23,0.01-0.45,0.03-0.66C341.67,395.22,342.75,393.61,344.71,392.48z"/>
		<rect x="527.88" y="383.95" class="st0" width="6.99" height="46.6"/>
		<path class="st0" d="M427.44,396.77c-2.37-0.04-4.7,0.57-6.75,1.75v-14.56h-6.99v46.6h6.99v-20.24c0-3.7,3-6.7,6.7-6.7
			c3.7,0,6.7,3,6.7,6.7v20.24h6.99v-20.24C441.01,402.82,434.93,396.78,427.44,396.77z"/>
		<path class="st0" d="M314.68,399.97v-3.2h-6.99v33.79h6.99v-17.68c0.41-5.16,4.73-9.13,9.9-9.11h3.5v-6.99h-3.5
			C321.02,396.71,317.54,397.84,314.68,399.97z"/>
	</g>
	<g>
		<path class="st0" d="M81.15,372.89c-18.98,0-34.36,15.39-34.36,34.37c0,18.98,15.39,34.37,34.36,34.37
			c18.98,0,34.36-15.39,34.36-34.37C115.51,388.27,100.13,372.89,81.15,372.89z M94.29,387.04H78.12c-4.75,0-6.57,3.13-7.01,4.04
			c-0.39,0.82-0.58,1.72-0.57,2.63v3.75c0,2.2-0.42,4.23-1.25,6.03c-1.28,2.85-2.39,3.76-2.39,3.76s1.11,0.91,2.39,3.77
			c0.83,1.8,1.25,3.83,1.25,6.03v3.75c-0.01,0.91,0.18,1.81,0.57,2.63c0.44,0.9,2.26,4.04,7.01,4.04h16.17v5.05h-16.6
			c-4.12,0-7.48-2.28-8.57-3.34c-1.13-1.1-2.06-2.4-2.72-3.83c-0.64-1.44-0.96-2.99-0.95-4.57c0,0-0.03-4.69-0.05-5.14
			c-0.09-1.96-0.47-2.84-1.64-4.25c-1.55-1.87-4.85-1.62-4.85-1.62v-5.05c0,0,3.3,0.26,4.85-1.62c1.17-1.42,1.55-2.29,1.64-4.25
			c0.02-0.45,0.05-5.14,0.05-5.14c-0.01-1.57,0.31-3.13,0.95-4.57c0.66-1.43,1.59-2.73,2.72-3.83c1.09-1.06,4.45-3.34,8.57-3.34
			h16.6V387.04z"/>
		<path class="st0" d="M121.68,402.52c-2.61-22.39-22.88-38.42-45.26-35.81C54.03,369.33,38,389.6,40.61,411.98
			s22.88,38.42,45.26,35.81C108.26,445.18,124.3,424.91,121.68,402.52z M81.15,444.65c-20.65,0-37.4-16.74-37.4-37.4
			c0-20.65,16.74-37.4,37.4-37.4c20.65,0,37.4,16.74,37.4,37.4C118.55,427.91,101.8,444.65,81.15,444.65z"/>
	</g>
</g>
<g>
	<g>
		<path class="st1" d="M942.46,390.96c3.04-0.01,6.02,0.84,8.58,2.47c2.54,1.55,4.68,3.98,6.41,7.31l6.5-2.79
			c-2.35-4.64-5.37-8.1-9.06-10.4c-3.71-2.38-8.02-3.63-12.43-3.6c-3.12-0.01-6.21,0.61-9.09,1.81c-5.58,2.4-10.03,6.83-12.46,12.4
			c-2.42,5.81-2.42,12.35,0,18.16c2.42,5.58,6.87,10.02,12.46,12.42c2.88,1.2,5.97,1.82,9.09,1.81c4.4,0.03,8.72-1.22,12.43-3.6
			c3.69-2.3,6.72-5.76,9.06-10.4l-6.5-2.79c-1.73,3.31-3.86,5.77-6.41,7.37c-2.58,1.59-5.55,2.42-8.58,2.41
			c-4.34,0.07-8.52-1.65-11.56-4.76c-6.36-6.37-6.36-16.69,0-23.06C933.93,392.62,938.12,390.9,942.46,390.96z"/>
		<path class="st1" d="M987.25,396.79c-4.49-0.07-8.81,1.72-11.94,4.95c-3.3,3.3-4.95,7.28-4.95,11.92
			c-0.07,4.49,1.72,8.81,4.95,11.94c3.13,3.23,7.45,5.02,11.94,4.95c4.64,0,8.62-1.65,11.92-4.95c3.23-3.13,5.02-7.45,4.95-11.94
			c0-4.64-1.65-8.62-4.95-11.92C995.86,398.44,991.89,396.79,987.25,396.79z M994.26,420.64c-3.87,3.87-10.14,3.86-14,0
			c-3.87-3.87-3.86-10.14,0.01-14.01v-0.01c1.84-1.88,4.36-2.93,6.99-2.89c2.63,0,5.15,1.04,7.01,2.9
			C998.13,410.5,998.13,416.78,994.26,420.64z"/>
		<path class="st1" d="M1247.63,396.79c-4.49-0.07-8.81,1.72-11.94,4.95c-3.3,3.3-4.95,7.28-4.95,11.92
			c-0.07,4.49,1.72,8.81,4.95,11.94c3.13,3.23,7.45,5.02,11.94,4.95c4.64,0,8.62-1.65,11.92-4.95c3.23-3.13,5.02-7.45,4.95-11.94
			c0-4.64-1.65-8.62-4.95-11.92C1256.24,398.44,1252.27,396.79,1247.63,396.79z M1254.64,420.64c-3.87,3.87-10.14,3.86-14,0
			c-3.87-3.87-3.86-10.14,0.01-14.01v-0.01c1.84-1.88,4.36-2.93,6.99-2.89c2.63,0,5.15,1.04,7.01,2.9
			C1258.51,410.5,1258.51,416.78,1254.64,420.64z"/>
		<path class="st1" d="M1287.82,396.79c-4.49-0.07-8.81,1.72-11.94,4.95c-3.3,3.3-4.95,7.28-4.95,11.92
			c-0.07,4.49,1.72,8.81,4.95,11.94c3.13,3.23,7.45,5.02,11.94,4.95c4.64,0,8.62-1.65,11.92-4.95c3.23-3.13,5.02-7.45,4.95-11.94
			c0-4.64-1.65-8.62-4.95-11.92C1296.44,398.44,1292.46,396.79,1287.82,396.79z M1294.83,420.64c-3.87,3.87-10.14,3.86-14,0
			c-3.87-3.87-3.86-10.14,0.01-14.01v-0.01c1.84-1.88,4.36-2.93,6.99-2.89c2.63,0,5.15,1.04,7.01,2.9
			C1298.7,410.5,1298.7,416.78,1294.83,420.64z"/>
		<path class="st1" d="M1067.65,396.77c-4.62,0-8.6,1.66-11.92,4.96c-3.33,3.3-4.99,7.28-4.99,11.92c0.02,4.66,1.68,8.64,4.99,11.94
			s7.28,4.95,11.92,4.95c3.19,0.02,6.31-0.89,8.99-2.62c2.67-1.67,4.91-4.3,6.7-7.89l-6.42-2.78c-1.17,2.29-2.53,3.89-4.06,4.81
			c-3.76,2.39-8.66,1.93-11.92-1.1c-1.73-1.81-2.73-3.53-2.99-5.17h26.52l0.06-2.15c0-4.64-1.65-8.62-4.95-11.92
			C1076.26,398.42,1072.29,396.77,1067.65,396.77z M1058.96,408.84c0.52-1,1.48-2.07,2.9-3.23c3.46-2.51,8.14-2.51,11.59,0
			c1.45,1.14,2.43,2.21,2.93,3.23H1058.96z"/>
		<path class="st1" d="M1180.04,405.24c1.54,0.94,2.9,2.54,4.08,4.81l6.43-2.78c-1.79-3.57-4.03-6.19-6.7-7.86
			c-2.68-1.73-5.81-2.65-9-2.62c-4.67,0-8.66,1.65-11.96,4.95c-3.3,3.3-4.95,7.28-4.95,11.92c-0.07,4.49,1.72,8.82,4.95,11.94
			c3.33,3.3,7.31,4.95,11.96,4.95c3.19,0.02,6.32-0.89,9-2.62c2.67-1.67,4.9-4.3,6.7-7.89l-6.43-2.76
			c-1.18,2.29-2.54,3.89-4.08,4.81c-3.23,2.03-7.34,2.03-10.57,0c-4.65-2.92-6.06-9.06-3.14-13.71
			C1169.25,403.72,1175.39,402.32,1180.04,405.24z"/>
		<path class="st1" d="M1037.34,399.97c-6.72-4.87-15.98-4.13-21.84,1.75c-3.3,3.3-4.95,7.27-4.95,11.92
			c-0.01,9.33,7.54,16.91,16.87,16.92c3.57,0.01,7.04-1.12,9.93-3.21v3.2h6.99v-46.6h-6.99V399.97z M1037.34,414.43
			c-0.15,2.37-1.17,4.6-2.87,6.26c-3.89,3.91-10.21,3.93-14.12,0.05c-3.91-3.89-3.93-10.21-0.05-14.12
			c3.89-3.91,10.21-3.93,14.12-0.05c1.69,1.68,2.73,3.91,2.92,6.29V414.43z"/>
		<path class="st1" d="M1127.96,392.48c0.94-0.56,1.97-0.95,3.05-1.16c0.94-0.23,1.9-0.35,2.87-0.36c3.06,0,6.21,1.1,8.3,3.3
			c1.19,1.05,3.15,4.39,3.15,4.39l6.2-2.33c-0.58-1.88-2.62-5.08-4.29-6.93c-3.43-3.63-8.27-5.44-13.36-5.44
			c-4.27,0-7.93,1.17-10.97,3.5c-3.45,2.64-5.18,6.15-5.18,10.53c0,2.72,0.8,5.03,2.39,6.94c0.15,0.2,0.29,0.39,0.46,0.58
			c2.72,3.15,7.28,4.9,12.56,5.26c7.41,0.47,11.41,2.4,11.41,5.77c0,2.42-1.08,4.25-3.25,5.5c-0.94,0.56-1.97,0.95-3.05,1.16
			c-0.94,0.23-1.9,0.35-2.87,0.36c-3.06,0-6.21-1.1-8.3-3.3c-1.19-1.05-3.15-4.39-3.15-4.39l-6.2,2.33
			c0.58,1.88,2.62,5.08,4.29,6.93c3.43,3.63,8.27,5.44,13.35,5.44c4.27,0,7.93-1.17,10.97-3.5c3.45-2.65,5.17-6.16,5.17-10.54
			c0-2.72-0.8-5.03-2.39-6.94h0.01c-0.15-0.2-0.29-0.39-0.46-0.58c-2.72-3.15-7.28-4.91-12.56-5.26c-7.41-0.47-11.41-2.4-11.41-5.77
			c0-0.23,0.01-0.45,0.03-0.66C1124.92,395.22,1126,393.61,1127.96,392.48z"/>
		<rect x="1311.12" y="383.95" class="st1" width="6.99" height="46.6"/>
		<path class="st1" d="M1210.69,396.77c-2.37-0.04-4.7,0.57-6.75,1.75v-14.56h-6.99v46.6h6.99v-20.24c0-3.7,3-6.7,6.7-6.7
			c3.7,0,6.7,3,6.7,6.7v20.24h6.99v-20.24C1224.26,402.82,1218.18,396.78,1210.69,396.77z"/>
		<path class="st1" d="M1097.93,399.97v-3.2h-6.99v33.79h6.99v-17.68c0.41-5.16,4.73-9.13,9.9-9.11h3.5v-6.99h-3.5
			C1104.26,396.71,1100.78,397.84,1097.93,399.97z"/>
	</g>
	<g>
		<path class="st1" d="M864.4,372.89c-18.98,0-34.36,15.39-34.36,34.37c0,18.98,15.39,34.37,34.36,34.37
			c18.98,0,34.36-15.39,34.36-34.37C898.76,388.27,883.38,372.89,864.4,372.89z M877.54,387.04h-16.17c-4.75,0-6.57,3.13-7.01,4.04
			c-0.39,0.82-0.58,1.72-0.57,2.63v3.75c0,2.2-0.42,4.23-1.25,6.03c-1.28,2.85-2.39,3.76-2.39,3.76s1.11,0.91,2.39,3.77
			c0.83,1.8,1.25,3.83,1.25,6.03v3.75c-0.01,0.91,0.18,1.81,0.57,2.63c0.44,0.9,2.26,4.04,7.01,4.04h16.17v5.05h-16.6
			c-4.12,0-7.48-2.28-8.57-3.34c-1.13-1.1-2.06-2.4-2.72-3.83c-0.64-1.44-0.96-2.99-0.95-4.57c0,0-0.03-4.69-0.05-5.14
			c-0.09-1.96-0.47-2.84-1.64-4.25c-1.55-1.87-4.85-1.62-4.85-1.62v-5.05c0,0,3.3,0.26,4.85-1.62c1.17-1.42,1.55-2.29,1.64-4.25
			c0.02-0.45,0.05-5.14,0.05-5.14c-0.01-1.57,0.31-3.13,0.95-4.57c0.66-1.43,1.59-2.73,2.72-3.83c1.09-1.06,4.45-3.34,8.57-3.34
			h16.6V387.04z"/>
		<path class="st1" d="M904.93,402.52c-2.61-22.39-22.88-38.42-45.26-35.81c-22.39,2.61-38.42,22.88-35.81,45.26
			s22.88,38.42,45.26,35.81C891.51,445.18,907.54,424.91,904.93,402.52z M864.4,444.65c-20.65,0-37.4-16.74-37.4-37.4
			c0-20.65,16.74-37.4,37.4-37.4c20.65,0,37.4,16.74,37.4,37.4C901.79,427.91,885.05,444.65,864.4,444.65z"/>
	</g>
</g>
<g>
	<path class="st1" d="M831.88,6.63c-18.98,0-34.36,15.39-34.36,34.37c0,18.98,15.39,34.37,34.36,34.37
		c18.98,0,34.36-15.39,34.36-34.37C866.24,22.01,850.86,6.63,831.88,6.63z M845.02,20.78h-16.17c-4.75,0-6.57,3.13-7.01,4.04
		c-0.39,0.82-0.58,1.72-0.57,2.63v3.75c0,2.2-0.42,4.23-1.25,6.03c-1.28,2.85-2.39,3.76-2.39,3.76s1.11,0.91,2.39,3.77
		c0.83,1.8,1.25,3.83,1.25,6.03v3.75c-0.01,0.91,0.18,1.81,0.57,2.63c0.44,0.9,2.26,4.04,7.01,4.04h16.17v5.05h-16.6
		c-4.12,0-7.48-2.28-8.57-3.34c-1.13-1.1-2.06-2.4-2.72-3.83c-0.64-1.44-0.96-2.99-0.95-4.57c0,0-0.03-4.69-0.05-5.14
		c-0.09-1.96-0.47-2.84-1.64-4.25c-1.55-1.87-4.85-1.62-4.85-1.62v-5.05c0,0,3.3,0.26,4.85-1.62c1.17-1.42,1.55-2.29,1.64-4.25
		c0.02-0.45,0.05-5.14,0.05-5.14c-0.01-1.57,0.31-3.13,0.95-4.57c0.66-1.43,1.59-2.73,2.72-3.83c1.09-1.06,4.45-3.34,8.57-3.34h16.6
		V20.78z"/>
	<path class="st1" d="M872.41,36.26c-2.61-22.39-22.88-38.42-45.26-35.81c-22.39,2.61-38.42,22.88-35.81,45.26
		c2.61,22.39,22.88,38.42,45.26,35.81C858.99,78.92,875.02,58.65,872.41,36.26z M831.88,78.39c-20.65,0-37.4-16.74-37.4-37.4
		c0-20.65,16.74-37.4,37.4-37.4c20.65,0,37.4,16.74,37.4,37.4C869.27,61.65,852.53,78.39,831.88,78.39z"/>
</g>
<g>
	<path class="st0" d="M40.8,6.63c-18.98,0-34.36,15.39-34.36,34.37c0,18.98,15.39,34.37,34.36,34.37
		c18.98,0,34.36-15.39,34.36-34.37C75.17,22.01,59.78,6.63,40.8,6.63z M53.94,20.78H37.77c-4.75,0-6.57,3.13-7.01,4.04
		c-0.39,0.82-0.58,1.72-0.57,2.63v3.75c0,2.2-0.42,4.23-1.25,6.03c-1.28,2.85-2.39,3.76-2.39,3.76s1.11,0.91,2.39,3.77
		c0.83,1.8,1.25,3.83,1.25,6.03v3.75c-0.01,0.91,0.18,1.81,0.57,2.63c0.44,0.9,2.26,4.04,7.01,4.04h16.17v5.05h-16.6
		c-4.12,0-7.48-2.28-8.57-3.34c-1.13-1.1-2.06-2.4-2.72-3.83c-0.64-1.44-0.96-2.99-0.95-4.57c0,0-0.03-4.69-0.05-5.14
		c-0.09-1.96-0.47-2.84-1.64-4.25c-1.55-1.87-4.85-1.62-4.85-1.62v-5.05c0,0,3.3,0.26,4.85-1.62c1.17-1.42,1.55-2.29,1.64-4.25
		c0.02-0.45,0.05-5.14,0.05-5.14c-0.01-1.57,0.31-3.13,0.95-4.57c0.66-1.43,1.59-2.73,2.72-3.83c1.09-1.06,4.45-3.34,8.57-3.34h16.6
		V20.78z"/>
	<path class="st0" d="M81.34,36.26C78.73,13.88,58.46-2.15,36.07,0.46C13.69,3.07-2.34,23.33,0.27,45.72
		c2.61,22.39,22.88,38.42,45.26,35.81C67.92,78.92,83.95,58.65,81.34,36.26z M40.8,78.39c-20.65,0-37.4-16.74-37.4-37.4
		c0-20.65,16.74-37.4,37.4-37.4c20.65,0,37.4,16.74,37.4,37.4C78.2,61.65,61.46,78.39,40.8,78.39z"/>
</g>
<g>
	<g>
		<path class="st1" d="M910.24,171.44c3.04-0.01,6.02,0.84,8.58,2.47c2.54,1.55,4.68,3.98,6.41,7.31l6.5-2.79
			c-2.35-4.64-5.37-8.1-9.06-10.4c-3.71-2.38-8.02-3.63-12.43-3.6c-3.12-0.01-6.21,0.61-9.09,1.81c-5.58,2.4-10.03,6.83-12.46,12.4
			c-2.42,5.81-2.42,12.35,0,18.16c2.42,5.58,6.87,10.02,12.46,12.42c2.88,1.2,5.97,1.82,9.09,1.81c4.4,0.03,8.72-1.22,12.43-3.6
			c3.69-2.3,6.71-5.76,9.06-10.4l-6.5-2.79c-1.73,3.31-3.86,5.77-6.41,7.37c-2.58,1.59-5.55,2.42-8.58,2.41
			c-4.34,0.07-8.52-1.65-11.56-4.76c-6.36-6.37-6.36-16.69,0-23.06C901.71,173.09,905.89,171.37,910.24,171.44z"/>
		<path class="st1" d="M955.03,177.27c-4.49-0.07-8.81,1.72-11.94,4.95c-3.3,3.3-4.95,7.28-4.95,11.92
			c-0.07,4.49,1.72,8.81,4.95,11.94c3.13,3.23,7.45,5.02,11.94,4.95c4.64,0,8.62-1.65,11.92-4.95c3.23-3.13,5.02-7.45,4.95-11.94
			c0-4.64-1.65-8.62-4.95-11.92C963.64,178.92,959.67,177.27,955.03,177.27z M962.04,201.12c-3.87,3.87-10.14,3.86-14,0
			c-3.87-3.87-3.86-10.14,0.01-14.01v-0.01c1.84-1.88,4.36-2.93,6.99-2.89c2.63,0,5.15,1.04,7.01,2.9
			C965.91,190.98,965.9,197.25,962.04,201.12z"/>
		<path class="st1" d="M1215.41,177.27c-4.49-0.07-8.81,1.72-11.94,4.95c-3.3,3.3-4.95,7.28-4.95,11.92
			c-0.07,4.49,1.72,8.81,4.95,11.94c3.13,3.23,7.45,5.02,11.94,4.95c4.64,0,8.62-1.65,11.92-4.95c3.23-3.13,5.02-7.45,4.95-11.94
			c0-4.64-1.65-8.62-4.95-11.92C1224.02,178.92,1220.05,177.27,1215.41,177.27z M1222.42,201.12c-3.87,3.87-10.14,3.86-14,0
			c-3.87-3.87-3.86-10.14,0.01-14.01v-0.01c1.84-1.88,4.36-2.93,6.99-2.89c2.63,0,5.15,1.04,7.01,2.9
			C1226.29,190.98,1226.29,197.25,1222.42,201.12z"/>
		<path class="st1" d="M1255.6,177.27c-4.49-0.07-8.81,1.72-11.94,4.95c-3.3,3.3-4.95,7.28-4.95,11.92
			c-0.07,4.49,1.72,8.81,4.95,11.94c3.13,3.23,7.45,5.02,11.94,4.95c4.64,0,8.62-1.65,11.92-4.95c3.23-3.13,5.02-7.45,4.95-11.94
			c0-4.64-1.65-8.62-4.95-11.92C1264.21,178.92,1260.24,177.27,1255.6,177.27z M1262.61,201.12c-3.87,3.87-10.14,3.86-14,0
			c-3.87-3.87-3.86-10.14,0.01-14.01v-0.01c1.84-1.88,4.36-2.93,6.99-2.89c2.63,0,5.15,1.04,7.01,2.9
			C1266.48,190.98,1266.48,197.25,1262.61,201.12z"/>
		<path class="st1" d="M1035.43,177.24c-4.62,0-8.6,1.66-11.92,4.96c-3.33,3.3-4.99,7.28-4.99,11.92c0.02,4.66,1.68,8.64,4.99,11.94
			c3.3,3.3,7.28,4.95,11.92,4.95c3.19,0.02,6.31-0.89,8.99-2.62c2.67-1.67,4.91-4.3,6.7-7.89l-6.42-2.78
			c-1.17,2.29-2.53,3.89-4.06,4.81c-3.76,2.39-8.66,1.93-11.92-1.1c-1.73-1.81-2.73-3.53-2.99-5.17h26.52l0.06-2.15
			c0-4.64-1.65-8.62-4.95-11.92C1044.04,178.89,1040.07,177.24,1035.43,177.24z M1026.73,189.31c0.52-1,1.48-2.07,2.9-3.23
			c3.46-2.51,8.14-2.51,11.59,0c1.45,1.14,2.43,2.21,2.93,3.23H1026.73z"/>
		<path class="st1" d="M1147.82,185.72c1.54,0.94,2.9,2.54,4.08,4.81l6.43-2.78c-1.79-3.57-4.03-6.19-6.7-7.86
			c-2.68-1.73-5.81-2.65-9-2.62c-4.67,0-8.66,1.65-11.96,4.95c-3.3,3.3-4.95,7.28-4.95,11.92c-0.07,4.49,1.72,8.82,4.95,11.94
			c3.33,3.3,7.31,4.95,11.96,4.95c3.19,0.02,6.32-0.89,9-2.62c2.67-1.67,4.9-4.3,6.7-7.89l-6.43-2.76
			c-1.18,2.29-2.54,3.89-4.08,4.81c-3.23,2.03-7.34,2.03-10.57,0c-4.65-2.92-6.06-9.06-3.14-13.71S1143.16,182.8,1147.82,185.72z"/>
		<path class="st1" d="M1005.12,180.45c-6.72-4.87-15.98-4.13-21.84,1.75c-3.3,3.3-4.95,7.27-4.95,11.92
			c-0.01,9.33,7.54,16.91,16.87,16.92c3.57,0.01,7.04-1.12,9.93-3.21v3.2h6.99v-46.6h-6.99V180.45z M1005.12,194.91
			c-0.15,2.37-1.17,4.6-2.87,6.26c-3.89,3.91-10.21,3.93-14.12,0.05c-3.91-3.89-3.93-10.21-0.05-14.12
			c3.89-3.91,10.21-3.93,14.12-0.05c1.69,1.68,2.73,3.91,2.92,6.29V194.91z"/>
		<path class="st1" d="M1095.74,172.95c0.94-0.56,1.97-0.95,3.05-1.16c0.94-0.23,1.9-0.35,2.87-0.36c3.06,0,6.21,1.1,8.3,3.3
			c1.19,1.05,3.15,4.39,3.15,4.39l6.2-2.33c-0.58-1.88-2.62-5.08-4.29-6.93c-3.43-3.63-8.27-5.44-13.36-5.44
			c-4.27,0-7.93,1.17-10.97,3.5c-3.45,2.64-5.18,6.15-5.18,10.53c0,2.72,0.8,5.03,2.39,6.94c0.15,0.2,0.29,0.39,0.46,0.58
			c2.72,3.15,7.28,4.9,12.56,5.26c7.41,0.47,11.41,2.4,11.41,5.77c0,2.42-1.08,4.25-3.25,5.5c-0.94,0.56-1.97,0.95-3.05,1.16
			c-0.94,0.23-1.9,0.35-2.87,0.36c-3.06,0-6.21-1.1-8.3-3.3c-1.19-1.05-3.15-4.39-3.15-4.39l-6.2,2.33
			c0.58,1.88,2.62,5.08,4.29,6.93c3.43,3.63,8.27,5.44,13.35,5.44c4.27,0,7.93-1.17,10.97-3.5c3.45-2.65,5.17-6.16,5.17-10.54
			c0-2.72-0.8-5.03-2.39-6.94h0.01c-0.15-0.2-0.29-0.39-0.46-0.58c-2.72-3.15-7.28-4.91-12.56-5.26c-7.41-0.47-11.41-2.4-11.41-5.77
			c0-0.23,0.01-0.45,0.03-0.66C1092.7,175.69,1093.77,174.08,1095.74,172.95z"/>
		<rect x="1278.9" y="164.43" class="st1" width="6.99" height="46.6"/>
		<path class="st1" d="M1178.47,177.24c-2.37-0.04-4.7,0.57-6.75,1.75v-14.56h-6.99v46.6h6.99v-20.24c0-3.7,3-6.7,6.7-6.7
			c3.7,0,6.7,3,6.7,6.7v20.24h6.99v-20.24C1192.04,183.3,1185.96,177.26,1178.47,177.24z"/>
		<path class="st1" d="M1065.7,180.45v-3.2h-6.99v33.79h6.99v-17.68c0.41-5.16,4.73-9.13,9.9-9.11h3.5v-6.99h-3.5
			C1072.04,177.19,1068.56,178.32,1065.7,180.45z"/>
	</g>
	<g>
		<path class="st1" d="M872.71,183c-2.61-22.39-22.88-38.42-45.26-35.81c-22.39,2.61-38.42,22.88-35.81,45.26
			c2.61,22.39,22.88,38.42,45.26,35.81C859.29,225.65,875.32,205.39,872.71,183z M832.17,225.13c-20.65,0-37.4-16.74-37.4-37.4
			c0-20.65,16.74-37.4,37.4-37.4c20.65,0,37.4,16.74,37.4,37.4C869.57,208.39,852.83,225.13,832.17,225.13z"/>
		<path class="st1" d="M832.17,153.37c-18.98,0-34.36,15.39-34.36,34.37c0,18.98,15.39,34.37,34.36,34.37
			c18.98,0,34.36-15.39,34.36-34.37C866.54,168.75,851.15,153.37,832.17,153.37z M845.31,167.52h-16.17c-4.75,0-6.57,3.13-7.01,4.04
			c-0.39,0.82-0.58,1.72-0.57,2.63v3.75c0,2.2-0.42,4.23-1.25,6.03c-1.28,2.85-2.39,3.76-2.39,3.76s1.11,0.91,2.39,3.77
			c0.83,1.8,1.25,3.83,1.25,6.03v3.75c-0.01,0.91,0.18,1.81,0.57,2.63c0.44,0.9,2.26,4.04,7.01,4.04h16.17V213h-16.6
			c-4.12,0-7.48-2.28-8.57-3.34c-1.13-1.1-2.06-2.4-2.72-3.83c-0.64-1.44-0.96-2.99-0.95-4.57c0,0-0.03-4.69-0.05-5.14
			c-0.09-1.96-0.47-2.84-1.64-4.25c-1.55-1.87-4.85-1.62-4.85-1.62v-5.05c0,0,3.3,0.26,4.85-1.62c1.17-1.42,1.55-2.29,1.64-4.25
			c0.02-0.45,0.05-5.14,0.05-5.14c-0.01-1.57,0.31-3.13,0.95-4.57c0.66-1.43,1.59-2.73,2.72-3.83c1.09-1.06,4.45-3.34,8.57-3.34
			h16.6V167.52z"/>
	</g>
</g>
<g>
	<g>
		<path class="st0" d="M118.87,171.44c3.04-0.01,6.02,0.84,8.58,2.47c2.54,1.55,4.68,3.98,6.41,7.31l6.5-2.79
			c-2.35-4.64-5.37-8.1-9.06-10.4c-3.71-2.38-8.02-3.63-12.43-3.6c-3.12-0.01-6.21,0.61-9.09,1.81c-5.58,2.4-10.03,6.83-12.46,12.4
			c-2.42,5.81-2.42,12.35,0,18.16c2.42,5.58,6.87,10.02,12.46,12.42c2.88,1.2,5.97,1.82,9.09,1.81c4.4,0.03,8.72-1.22,12.43-3.6
			c3.69-2.3,6.71-5.76,9.06-10.4l-6.5-2.79c-1.73,3.31-3.86,5.77-6.41,7.37c-2.58,1.59-5.55,2.42-8.58,2.41
			c-4.34,0.07-8.52-1.65-11.56-4.76c-6.36-6.37-6.36-16.69,0-23.06C110.34,173.09,114.52,171.37,118.87,171.44z"/>
		<path class="st0" d="M163.65,177.27c-4.49-0.07-8.81,1.72-11.94,4.95c-3.3,3.3-4.95,7.28-4.95,11.92
			c-0.07,4.49,1.72,8.81,4.95,11.94c3.13,3.23,7.45,5.02,11.94,4.95c4.64,0,8.62-1.65,11.92-4.95c3.23-3.13,5.02-7.45,4.95-11.94
			c0-4.64-1.65-8.62-4.95-11.92C172.27,178.92,168.3,177.27,163.65,177.27z M170.66,201.12c-3.87,3.87-10.14,3.86-14,0
			c-3.87-3.87-3.86-10.14,0-14.01v-0.01c1.84-1.88,4.36-2.93,6.99-2.89c2.63,0,5.15,1.04,7.01,2.9
			C174.53,190.98,174.53,197.25,170.66,201.12z"/>
		<path class="st0" d="M424.04,177.27c-4.49-0.07-8.81,1.72-11.94,4.95c-3.3,3.3-4.95,7.28-4.95,11.92
			c-0.07,4.49,1.72,8.81,4.95,11.94c3.13,3.23,7.45,5.02,11.94,4.95c4.64,0,8.62-1.65,11.92-4.95c3.23-3.13,5.02-7.45,4.95-11.94
			c0-4.64-1.65-8.62-4.95-11.92C432.65,178.92,428.68,177.27,424.04,177.27z M431.05,201.12c-3.87,3.87-10.14,3.86-14,0
			c-3.87-3.87-3.86-10.14,0.01-14.01v-0.01c1.84-1.88,4.36-2.93,6.99-2.89c2.63,0,5.15,1.04,7.01,2.9
			C434.92,190.98,434.91,197.25,431.05,201.12z"/>
		<path class="st0" d="M464.23,177.27c-4.49-0.07-8.81,1.72-11.94,4.95c-3.3,3.3-4.95,7.28-4.95,11.92
			c-0.07,4.49,1.72,8.81,4.95,11.94c3.13,3.23,7.45,5.02,11.94,4.95c4.64,0,8.62-1.65,11.92-4.95c3.23-3.13,5.02-7.45,4.95-11.94
			c0-4.64-1.65-8.62-4.95-11.92C472.84,178.92,468.87,177.27,464.23,177.27z M471.24,201.12c-3.87,3.87-10.14,3.86-14,0
			c-3.87-3.87-3.86-10.14,0.01-14.01v-0.01c1.84-1.88,4.36-2.93,6.99-2.89c2.63,0,5.15,1.04,7.01,2.9
			C475.11,190.98,475.11,197.25,471.24,201.12z"/>
		<path class="st0" d="M244.06,177.24c-4.62,0-8.6,1.66-11.92,4.96c-3.33,3.3-4.99,7.28-4.99,11.92c0.02,4.66,1.68,8.64,4.99,11.94
			c3.3,3.3,7.28,4.95,11.92,4.95c3.19,0.02,6.31-0.89,8.99-2.62c2.67-1.67,4.91-4.3,6.7-7.89l-6.42-2.78
			c-1.17,2.29-2.53,3.89-4.06,4.81c-3.76,2.39-8.66,1.93-11.92-1.1c-1.73-1.81-2.73-3.53-2.99-5.17h26.52l0.06-2.15
			c0-4.64-1.65-8.62-4.95-11.92C252.67,178.89,248.7,177.24,244.06,177.24z M235.36,189.31c0.52-1,1.48-2.07,2.9-3.23
			c3.46-2.51,8.14-2.51,11.59,0c1.45,1.14,2.43,2.21,2.93,3.23H235.36z"/>
		<path class="st0" d="M356.44,185.72c1.54,0.94,2.9,2.54,4.08,4.81l6.43-2.78c-1.79-3.57-4.03-6.19-6.7-7.86
			c-2.68-1.73-5.81-2.65-9-2.62c-4.67,0-8.66,1.65-11.96,4.95c-3.3,3.3-4.95,7.28-4.95,11.92c-0.07,4.49,1.72,8.82,4.95,11.94
			c3.33,3.3,7.31,4.95,11.96,4.95c3.19,0.02,6.32-0.89,9-2.62c2.67-1.67,4.9-4.3,6.7-7.89l-6.43-2.76
			c-1.18,2.29-2.54,3.89-4.08,4.81c-3.23,2.03-7.34,2.03-10.58,0c-4.65-2.92-6.06-9.06-3.14-13.71
			C345.65,184.2,351.79,182.8,356.44,185.72z"/>
		<path class="st0" d="M213.75,180.45c-6.72-4.87-15.98-4.13-21.84,1.75c-3.3,3.3-4.95,7.27-4.95,11.92
			c-0.01,9.33,7.54,16.91,16.87,16.92c3.57,0.01,7.04-1.12,9.93-3.21v3.2h6.99v-46.6h-6.99V180.45z M213.75,194.91
			c-0.15,2.37-1.17,4.6-2.87,6.26c-3.89,3.91-10.21,3.93-14.12,0.05c-3.91-3.89-3.93-10.21-0.05-14.12
			c3.89-3.91,10.21-3.93,14.12-0.05c1.69,1.68,2.73,3.91,2.92,6.29V194.91z"/>
		<path class="st0" d="M304.37,172.95c0.94-0.56,1.97-0.95,3.05-1.16c0.94-0.23,1.9-0.35,2.87-0.36c3.06,0,6.21,1.1,8.3,3.3
			c1.19,1.05,3.15,4.39,3.15,4.39l6.2-2.33c-0.58-1.88-2.62-5.08-4.29-6.93c-3.43-3.63-8.27-5.44-13.36-5.44
			c-4.27,0-7.93,1.17-10.97,3.5c-3.45,2.64-5.18,6.15-5.18,10.53c0,2.72,0.8,5.03,2.39,6.94c0.15,0.2,0.29,0.39,0.46,0.58
			c2.72,3.15,7.28,4.9,12.56,5.26c7.41,0.47,11.41,2.4,11.41,5.77c0,2.42-1.08,4.25-3.25,5.5c-0.94,0.56-1.97,0.95-3.05,1.16
			c-0.94,0.23-1.9,0.35-2.87,0.36c-3.06,0-6.21-1.1-8.3-3.3c-1.19-1.05-3.15-4.39-3.15-4.39l-6.2,2.33
			c0.58,1.88,2.62,5.08,4.29,6.93c3.43,3.63,8.27,5.44,13.35,5.44c4.27,0,7.93-1.17,10.97-3.5c3.45-2.65,5.17-6.16,5.17-10.54
			c0-2.72-0.8-5.03-2.39-6.94h0.01c-0.15-0.2-0.29-0.39-0.46-0.58c-2.72-3.15-7.28-4.91-12.56-5.26c-7.41-0.47-11.41-2.4-11.41-5.77
			c0-0.23,0.01-0.45,0.03-0.66C301.33,175.69,302.4,174.08,304.37,172.95z"/>
		<rect x="487.53" y="164.43" class="st0" width="6.99" height="46.6"/>
		<path class="st0" d="M387.09,177.24c-2.37-0.04-4.7,0.57-6.75,1.75v-14.56h-6.99v46.6h6.99v-20.24c0-3.7,3-6.7,6.7-6.7
			c3.7,0,6.7,3,6.7,6.7v20.24h6.99v-20.24C400.67,183.3,394.58,177.26,387.09,177.24z"/>
		<path class="st0" d="M274.33,180.45v-3.2h-6.99v33.79h6.99v-17.68c0.41-5.16,4.73-9.13,9.9-9.11h3.5v-6.99h-3.5
			C280.67,177.19,277.19,178.32,274.33,180.45z"/>
	</g>
	<g>
		<path class="st0" d="M81.34,183c-2.61-22.39-22.88-38.42-45.26-35.81c-22.39,2.61-38.42,22.88-35.81,45.26
			c2.61,22.39,22.88,38.42,45.26,35.81C67.92,225.65,83.95,205.39,81.34,183z M40.8,225.13c-20.65,0-37.4-16.74-37.4-37.4
			c0-20.65,16.74-37.4,37.4-37.4c20.65,0,37.4,16.74,37.4,37.4C78.2,208.39,61.46,225.13,40.8,225.13z"/>
		<path class="st0" d="M40.8,153.37c-18.98,0-34.36,15.39-34.36,34.37c0,18.98,15.39,34.37,34.36,34.37
			c18.98,0,34.36-15.39,34.36-34.37C75.17,168.75,59.78,153.37,40.8,153.37z M53.94,167.52H37.77c-4.75,0-6.57,3.13-7.01,4.04
			c-0.39,0.82-0.58,1.72-0.57,2.63v3.75c0,2.2-0.42,4.23-1.25,6.03c-1.28,2.85-2.39,3.76-2.39,3.76s1.11,0.91,2.39,3.77
			c0.83,1.8,1.25,3.83,1.25,6.03v3.75c-0.01,0.91,0.18,1.81,0.57,2.63c0.44,0.9,2.26,4.04,7.01,4.04h16.17V213h-16.6
			c-4.12,0-7.48-2.28-8.57-3.34c-1.13-1.1-2.06-2.4-2.72-3.83c-0.64-1.44-0.96-2.99-0.95-4.57c0,0-0.03-4.69-0.05-5.14
			c-0.09-1.96-0.47-2.84-1.64-4.25c-1.55-1.87-4.85-1.62-4.85-1.62v-5.05c0,0,3.3,0.26,4.85-1.62c1.17-1.42,1.55-2.29,1.64-4.25
			c0.02-0.45,0.05-5.14,0.05-5.14c-0.01-1.57,0.31-3.13,0.95-4.57c0.66-1.43,1.59-2.73,2.72-3.83c1.09-1.06,4.45-3.34,8.57-3.34
			h16.6V167.52z"/>
	</g>
</g>
<g>
	<g>
		<path class="st1" d="M814.95,925.33c3,0,6,0.8,8.6,2.5c2.8,1.8,5,4.3,6.4,7.3l6.5-2.8c-2-4.2-5.1-7.8-9.1-10.4
			c-3.7-2.4-8-3.6-12.4-3.6c-3.1,0-6.2,0.6-9.1,1.8c-5.6,2.4-10,6.8-12.5,12.4c-5,11.9,0.5,25.5,12.4,30.5c2.9,1.2,6,1.9,9.2,1.8
			c4.4,0,8.7-1.2,12.4-3.6c3.9-2.6,7.1-6.2,9.1-10.4l-6.5-2.8c-1.4,3-3.7,5.5-6.4,7.4c-2.6,1.6-5.6,2.4-8.6,2.4
			c-4.3,0.1-8.5-1.7-11.6-4.8c-6.4-6.4-6.4-16.7,0-23.1C806.45,927.03,810.65,925.33,814.95,925.33z"/>
		<path class="st1" d="M859.75,931.13c-9.3,0-16.9,7.5-16.9,16.8c0,4.5,1.8,8.8,5,12c6.6,6.6,17.3,6.6,23.9,0
			c6.6-6.6,6.6-17.3,0-23.9C868.55,932.93,864.25,931.13,859.75,931.13z M866.75,955.03c-3.8,3.9-10.1,4-14,0.1
			c-3.9-3.8-4-10.1-0.1-14l0.1-0.1l0,0c1.8-1.9,4.4-2.9,7-2.9c5.5,0,9.9,4.4,9.9,9.9C869.65,950.63,868.65,953.23,866.75,955.03
			L866.75,955.03z"/>
		<path class="st1" d="M1120.15,931.13c-9.3,0-16.9,7.5-16.9,16.8c0,4.5,1.8,8.8,5,12c6.6,6.6,17.3,6.6,23.9,0
			c6.6-6.6,6.6-17.3,0-23.9C1128.95,932.93,1124.65,931.13,1120.15,931.13z M1127.15,955.03c-3.8,3.9-10.1,4-14,0.1
			c-3.9-3.8-4-10.1-0.1-14l0.1-0.1l0,0c1.8-1.9,4.4-2.9,7-2.9c5.5,0,9.9,4.4,9.9,9.9C1130.05,950.63,1128.95,953.23,1127.15,955.03
			L1127.15,955.03z"/>
		<path class="st1" d="M1160.35,931.13c-9.3,0-16.9,7.5-16.9,16.8c0,4.5,1.8,8.8,5,12c6.6,6.6,17.3,6.6,23.9,0
			c6.6-6.6,6.6-17.3,0-23.9C1169.15,932.93,1164.85,931.13,1160.35,931.13z M1167.35,955.03c-3.8,3.9-10.1,4-14,0.1
			c-3.9-3.8-4-10.1-0.1-14l0.1-0.1l0,0c1.8-1.9,4.4-2.9,7-2.9c5.5,0,9.9,4.4,9.9,9.9C1170.25,950.63,1169.15,953.23,1167.35,955.03
			L1167.35,955.03z"/>
		<path class="st1" d="M940.15,931.13c-9.3,0-16.9,7.5-16.9,16.8c0,4.5,1.8,8.9,5,12c5.6,5.6,14.3,6.6,20.9,2.3
			c2.9-2,5.2-4.7,6.7-7.9l-6.4-2.8c-0.9,1.9-2.3,3.6-4.1,4.8c-3.8,2.4-8.7,1.9-11.9-1.1c-1.5-1.4-2.5-3.2-3-5.2h26.5l0.1-2.1
			C956.95,938.73,949.45,931.13,940.15,931.13z M931.45,943.23c0.7-1.3,1.7-2.4,2.9-3.2c3.5-2.5,8.1-2.5,11.6,0
			c1.2,0.9,2.2,2,2.9,3.2H931.45z"/>
		<path class="st1" d="M1052.55,939.63c1.8,1.2,3.2,2.9,4.1,4.8l6.4-2.8c-1.5-3.2-3.8-5.9-6.7-7.8c-7.8-5.1-18.3-2.8-23.3,5
			c-4.4,6.7-3.4,15.6,2.3,21.2c5.6,5.6,14.3,6.6,21,2.3c2.9-2,5.2-4.7,6.7-7.9l-6.4-2.7c-0.9,1.9-2.3,3.6-4.1,4.8
			c-4.7,2.9-10.8,1.5-13.7-3.1c-2.9-4.7-1.5-10.8,3.1-13.7C1045.15,937.63,1049.25,937.63,1052.55,939.63L1052.55,939.63z"/>
		<path class="st1" d="M909.85,934.33c-6.7-4.9-16-4.1-21.8,1.8c-3.2,3.1-5.1,7.4-5,11.9c0,9.3,7.5,16.9,16.9,16.9
			c3.6,0,7.1-1.1,9.9-3.2v3.2h7v-46.6h-7L909.85,934.33z M909.85,948.83c-0.2,2.4-1.2,4.6-2.9,6.3c-3.9,3.9-10.2,3.9-14.1,0.1
			c-3.9-3.9-3.9-10.2-0.1-14.1c3.8-3.9,10.2-3.9,14.1-0.1c1.7,1.7,2.7,3.9,2.9,6.3v1.5L909.85,948.83L909.85,948.83z"/>
		<path class="st1" d="M1000.45,926.83c0.9-0.6,1.9-0.9,3-1.2c0.9-0.2,1.9-0.4,2.9-0.4c3.1-0.1,6.1,1.1,8.3,3.3
			c1.2,1.4,2.3,2.8,3.1,4.4l6.2-2.3c-1-2.5-2.4-4.8-4.2-6.8c-3.5-3.6-8.3-5.5-13.4-5.4c-4-0.1-7.8,1.1-11,3.5
			c-3.4,2.4-5.3,6.4-5.2,10.5c-0.1,2.5,0.8,5,2.4,6.9c0.1,0.2,0.3,0.4,0.5,0.6c2.7,3.1,7.3,4.9,12.6,5.3c7.4,0.5,11.4,2.4,11.4,5.8
			c0.1,2.3-1.2,4.4-3.2,5.5c-0.9,0.6-1.9,0.9-3,1.2c-0.9,0.2-1.9,0.4-2.9,0.4c-3.1,0.1-6.1-1.1-8.3-3.3c-1.2-1.3-2.3-2.8-3.1-4.4
			l-6.2,2.3c1,2.5,2.5,4.9,4.3,6.9c3.5,3.6,8.3,5.5,13.4,5.4c4,0.1,7.8-1.1,11-3.5c3.4-2.4,5.3-6.4,5.2-10.5c0.1-2.5-0.8-5-2.4-6.9
			l0,0c-0.1-0.2-0.3-0.4-0.5-0.6c-2.7-3.1-7.3-4.9-12.6-5.3c-7.4-0.5-11.4-2.4-11.4-5.8c0-0.2,0-0.4,0-0.7
			C997.35,929.63,998.55,927.73,1000.45,926.83z"/>
		<rect x="1183.65" y="918.33" class="st1" width="7" height="46.6"/>
		<path class="st1" d="M1083.15,931.13c-2.4,0-4.7,0.6-6.8,1.8v-14.6h-7v46.6h7v-20.2c0-3.7,3-6.7,6.7-6.7c3.7,0,6.7,3,6.7,6.7l0,0
			v20.2h7v-20.2C1096.75,937.23,1090.65,931.13,1083.15,931.13z"/>
		<path class="st1" d="M970.45,934.33v-3.2h-7v33.8h7v-17.7c0.4-5.2,4.7-9.1,9.9-9.1h3.5v-7h-3.5
			C976.75,931.13,973.25,932.23,970.45,934.33z"/>
	</g>
	<g>
		<path class="st1" d="M1102.41,754.65c-7.17-61.5-62.83-105.54-124.33-98.37s-105.54,62.83-98.37,124.33s62.83,105.54,124.33,98.37
			C1065.54,871.81,1109.58,816.15,1102.41,754.65z M991.05,870.43c-56.8,0-102.8-46-102.8-102.8s46-102.8,102.8-102.8
			c56.8,0,102.8,46.1,102.8,102.8C1093.85,824.43,1047.85,870.43,991.05,870.43z"/>
		<path class="st1" d="M990.95,673.13c-52.1,0-94.4,42.4-94.4,94.5c0,52.1,42.3,94.4,94.5,94.4c52.2,0,94.5-42.3,94.4-94.5
			C1085.45,715.43,1043.15,673.13,990.95,673.13z M1027.15,712.33h-44.4c-8-0.5-15.5,3.9-19.2,11c-1.1,2.2-1.6,4.7-1.6,7.2v10.5
			c0.1,5.7-1.1,11.3-3.4,16.5c-1.5,3.8-3.7,7.3-6.6,10.3c2.9,3,5.2,6.5,6.6,10.4c2.3,5.2,3.5,10.8,3.4,16.5v10.3
			c0,2.5,0.5,4.9,1.6,7.2c3.6,7.2,11.2,11.5,19.2,11h44.4v14h-45.6c-8.6-0.2-17-3.5-23.5-9.2c-3.1-3-5.7-6.6-7.5-10.5
			c-1.7-4-2.7-8.3-2.7-12.6c0,0,0-12.9,0-14.1c0.1-4.4-1.5-8.6-4.5-11.7c-4.2-5.2-13.3-4.5-13.3-4.5v-13.9c0,0,9,0.6,13.3-4.5
			c3-3.2,4.6-7.4,4.5-11.7c0-1.2,0-14.1,0-14.1c0-4.4,0.9-8.7,2.7-12.6c1.9-3.9,4.4-7.5,7.5-10.5c6.5-5.7,14.9-9,23.5-9h45.6V712.33
			z"/>
	</g>
</g>
<g>
	<g>
		<path class="st0" d="M26.88,925.33c3,0,6,0.8,8.6,2.5c2.8,1.8,5,4.3,6.4,7.3l6.5-2.8c-2-4.2-5.1-7.8-9.1-10.4
			c-3.7-2.4-8-3.6-12.4-3.6c-3.1,0-6.2,0.6-9.1,1.8c-5.6,2.4-10,6.8-12.5,12.4c-5,11.9,0.5,25.5,12.4,30.5c2.9,1.2,6,1.9,9.2,1.8
			c4.4,0,8.7-1.2,12.4-3.6c3.9-2.6,7.1-6.2,9.1-10.4l-6.5-2.8c-1.4,3-3.7,5.5-6.4,7.4c-2.6,1.6-5.6,2.4-8.6,2.4
			c-4.3,0.1-8.5-1.7-11.6-4.8c-6.4-6.4-6.4-16.7,0-23.1C18.38,927.03,22.58,925.33,26.88,925.33z"/>
		<path class="st0" d="M71.68,931.13c-9.3,0-16.9,7.5-16.9,16.8c0,4.5,1.8,8.8,5,12c6.6,6.6,17.3,6.6,23.9,0
			c6.6-6.6,6.6-17.3,0-23.9C80.48,932.93,76.18,931.13,71.68,931.13z M78.68,955.03c-3.8,3.9-10.1,4-14,0.1c-3.9-3.8-4-10.1-0.1-14
			l0.1-0.1l0,0c1.8-1.9,4.4-2.9,7-2.9c5.5,0,9.9,4.4,9.9,9.9C81.58,950.63,80.58,953.23,78.68,955.03L78.68,955.03z"/>
		<path class="st0" d="M332.08,931.13c-9.3,0-16.9,7.5-16.9,16.8c0,4.5,1.8,8.8,5,12c6.6,6.6,17.3,6.6,23.9,0
			c6.6-6.6,6.6-17.3,0-23.9C340.88,932.93,336.58,931.13,332.08,931.13z M339.08,955.03c-3.8,3.9-10.1,4-14,0.1
			c-3.9-3.8-4-10.1-0.1-14l0.1-0.1l0,0c1.8-1.9,4.4-2.9,7-2.9c5.5,0,9.9,4.4,9.9,9.9C341.98,950.63,340.88,953.23,339.08,955.03
			L339.08,955.03z"/>
		<path class="st0" d="M372.28,931.13c-9.3,0-16.9,7.5-16.9,16.8c0,4.5,1.8,8.8,5,12c6.6,6.6,17.3,6.6,23.9,0
			c6.6-6.6,6.6-17.3,0-23.9C381.08,932.93,376.78,931.13,372.28,931.13z M379.28,955.03c-3.8,3.9-10.1,4-14,0.1
			c-3.9-3.8-4-10.1-0.1-14l0.1-0.1l0,0c1.8-1.9,4.4-2.9,7-2.9c5.5,0,9.9,4.4,9.9,9.9C382.18,950.63,381.08,953.23,379.28,955.03
			L379.28,955.03z"/>
		<path class="st0" d="M152.08,931.13c-9.3,0-16.9,7.5-16.9,16.8c0,4.5,1.8,8.9,5,12c5.6,5.6,14.3,6.6,20.9,2.3
			c2.9-2,5.2-4.7,6.7-7.9l-6.4-2.8c-0.9,1.9-2.3,3.6-4.1,4.8c-3.8,2.4-8.7,1.9-11.9-1.1c-1.5-1.4-2.5-3.2-3-5.2h26.5l0.1-2.1
			C168.88,938.73,161.38,931.13,152.08,931.13z M143.38,943.23c0.7-1.3,1.7-2.4,2.9-3.2c3.5-2.5,8.1-2.5,11.6,0
			c1.2,0.9,2.2,2,2.9,3.2H143.38z"/>
		<path class="st0" d="M264.48,939.63c1.8,1.2,3.2,2.9,4.1,4.8l6.4-2.8c-1.5-3.2-3.8-5.9-6.7-7.8c-7.8-5.1-18.3-2.8-23.3,5
			c-4.4,6.7-3.4,15.6,2.3,21.2c5.6,5.6,14.3,6.6,21,2.3c2.9-2,5.2-4.7,6.7-7.9l-6.4-2.7c-0.9,1.9-2.3,3.6-4.1,4.8
			c-4.7,2.9-10.8,1.5-13.7-3.1c-2.9-4.7-1.5-10.8,3.1-13.7C257.08,937.63,261.18,937.63,264.48,939.63L264.48,939.63z"/>
		<path class="st0" d="M121.78,934.33c-6.7-4.9-16-4.1-21.8,1.8c-3.2,3.1-5.1,7.4-5,11.9c0,9.3,7.5,16.9,16.9,16.9
			c3.6,0,7.1-1.1,9.9-3.2v3.2h7v-46.6h-7L121.78,934.33z M121.78,948.83c-0.2,2.4-1.2,4.6-2.9,6.3c-3.9,3.9-10.2,3.9-14.1,0.1
			c-3.9-3.9-3.9-10.2-0.1-14.1c3.8-3.9,10.2-3.9,14.1-0.1c1.7,1.7,2.7,3.9,2.9,6.3v1.5L121.78,948.83L121.78,948.83z"/>
		<path class="st0" d="M212.38,926.83c0.9-0.6,1.9-0.9,3-1.2c0.9-0.2,1.9-0.4,2.9-0.4c3.1-0.1,6.1,1.1,8.3,3.3
			c1.2,1.4,2.3,2.8,3.1,4.4l6.2-2.3c-1-2.5-2.4-4.8-4.2-6.8c-3.5-3.6-8.3-5.5-13.4-5.4c-4-0.1-7.8,1.1-11,3.5
			c-3.4,2.4-5.3,6.4-5.2,10.5c-0.1,2.5,0.8,5,2.4,6.9c0.1,0.2,0.3,0.4,0.5,0.6c2.7,3.1,7.3,4.9,12.6,5.3c7.4,0.5,11.4,2.4,11.4,5.8
			c0.1,2.3-1.2,4.4-3.2,5.5c-0.9,0.6-1.9,0.9-3,1.2c-0.9,0.2-1.9,0.4-2.9,0.4c-3.1,0.1-6.1-1.1-8.3-3.3c-1.2-1.3-2.3-2.8-3.1-4.4
			l-6.2,2.3c1,2.5,2.5,4.9,4.3,6.9c3.5,3.6,8.3,5.5,13.4,5.4c4,0.1,7.8-1.1,11-3.5c3.4-2.4,5.3-6.4,5.2-10.5c0.1-2.5-0.8-5-2.4-6.9
			l0,0c-0.1-0.2-0.3-0.4-0.5-0.6c-2.7-3.1-7.3-4.9-12.6-5.3c-7.4-0.5-11.4-2.4-11.4-5.8c0-0.2,0-0.4,0-0.7
			C209.28,929.63,210.48,927.73,212.38,926.83z"/>
		<rect x="395.58" y="918.33" class="st0" width="7" height="46.6"/>
		<path class="st0" d="M295.08,931.13c-2.4,0-4.7,0.6-6.8,1.8v-14.6h-7v46.6h7v-20.2c0-3.7,3-6.7,6.7-6.7s6.7,3,6.7,6.7l0,0v20.2h7
			v-20.2C308.68,937.23,302.58,931.13,295.08,931.13z"/>
		<path class="st0" d="M182.38,934.33v-3.2h-7v33.8h7v-17.7c0.4-5.2,4.7-9.1,9.9-9.1h3.5v-7h-3.5
			C188.68,931.13,185.18,932.23,182.38,934.33z"/>
	</g>
	<g>
		<path class="st0" d="M202.88,673.13c-52.1,0-94.4,42.4-94.4,94.5c0,52.1,42.3,94.4,94.5,94.4c52.2,0,94.5-42.3,94.4-94.5
			C297.38,715.43,255.08,673.13,202.88,673.13z M239.08,712.33h-44.4c-8-0.5-15.5,3.9-19.2,11c-1.1,2.2-1.6,4.7-1.6,7.2v10.5
			c0.1,5.7-1.1,11.3-3.4,16.5c-1.5,3.8-3.7,7.3-6.6,10.3c2.9,3,5.2,6.5,6.6,10.4c2.3,5.2,3.5,10.8,3.4,16.5v10.3
			c0,2.5,0.5,4.9,1.6,7.2c3.6,7.2,11.2,11.5,19.2,11h44.4v14h-45.6c-8.6-0.2-17-3.5-23.5-9.2c-3.1-3-5.7-6.6-7.5-10.5
			c-1.7-4-2.7-8.3-2.7-12.6c0,0,0-12.9,0-14.1c0.1-4.4-1.5-8.6-4.5-11.7c-4.2-5.2-13.3-4.5-13.3-4.5v-13.9c0,0,9,0.6,13.3-4.5
			c3-3.2,4.6-7.4,4.5-11.7c0-1.2,0-14.1,0-14.1c0-4.4,0.9-8.7,2.7-12.6c1.9-3.9,4.4-7.5,7.5-10.5c6.5-5.7,14.9-9,23.5-9h45.6V712.33
			z"/>
		<path class="st0" d="M314.34,754.65c-7.17-61.5-62.83-105.54-124.33-98.37S84.47,719.12,91.64,780.62s62.83,105.54,124.33,98.37
			S321.51,816.15,314.34,754.65z M202.98,870.43c-56.8,0-102.8-46-102.8-102.8s46-102.8,102.8-102.8c56.8,0,102.8,46.1,102.8,102.8
			C305.78,824.43,259.78,870.43,202.98,870.43z"/>
	</g>
</g>
</svg>
